<?xml version="1.0" standalone="no"?>
<!DOCTYPE svg PUBLIC "-//W3C//DTD SVG 20010904//EN"
 "http://www.w3.org/TR/2001/REC-SVG-20010904/DTD/svg10.dtd">
<svg version="1.0" xmlns="http://www.w3.org/2000/svg"
 width="295.000000pt" height="295.000000pt" viewBox="0 0 295.000000 295.000000"
 preserveAspectRatio="xMidYMid meet">
<metadata>
Created by potrace 1.11, written by Peter Selinger 2001-2013
</metadata>
<g transform="translate(0.000000,295.000000) scale(0.100000,-0.100000)"
fill="#000000" stroke="none">
<path d="M1820 1985 l-185 -255 -40 -1 c-22 -1 -57 -2 -77 -3 l-37 -1 -3 60
c-2 33 -4 -24 -5 -127 -1 -108 3 -188 8 -188 5 0 9 -112 9 -265 l0 -265 65 0
65 0 0 274 0 274 23 7 c29 10 207 32 213 26 2 -2 4 -134 4 -293 l0 -288 70 0
70 0 0 230 0 230 208 0 c253 0 291 8 362 79 29 29 54 66 64 96 10 28 23 60 29
72 15 33 2 153 -23 207 -30 62 -105 128 -170 149 -44 14 -96 17 -319 17 -147
0 -270 3 -274 6 -3 3 16 36 42 72 52 74 95 142 89 142 -2 0 -87 -115 -188
-255z m29 -197 c-1 -112 -3 -196 -5 -188 -4 12 -19 15 -82 12 -87 -3 -119 -15
-125 -46 -2 -12 -5 7 -6 40 l-1 61 108 162 c59 88 108 161 110 161 1 0 1 -91
1 -202z m580 77 c58 -34 76 -68 76 -141 l0 -65 -65 -5 c-36 -4 -85 -7 -110 -9
-25 -2 -45 -4 -45 -5 0 -4 -141 -14 -200 -14 -51 -1 -61 -4 -67 -21 -3 -11 -6
35 -7 101 -1 67 -4 136 -7 154 l-7 32 199 -4 c177 -3 203 -5 233 -23z m38
-291 c-50 -47 -90 -54 -290 -54 -164 0 -178 1 -175 17 3 19 51 31 124 32 22 1
44 4 48 9 4 4 49 12 99 19 168 22 206 29 214 37 4 4 10 0 12 -10 2 -11 -11
-31 -32 -50z"/>
<path d="M420 1480 l0 -540 263 0 c297 0 335 6 425 67 117 80 186 223 202 423
23 297 -101 517 -325 575 -46 11 -117 15 -312 15 l-253 0 0 -540z m541 396
c106 -38 165 -125 194 -284 15 -80 16 -107 6 -183 -22 -168 -77 -266 -178
-316 -56 -27 -64 -28 -235 -31 l-178 -4 -2 359 c-2 197 -2 387 0 422 l3 63
172 -5 c125 -3 185 -9 218 -21z"/>
<path d="M1486 1998 c-3 -13 -6 -47 -6 -75 l0 -53 70 0 70 0 0 75 0 75 -64 0
c-58 0 -64 -2 -70 -22z"/>
<path d="M2911 1752 c5 -40 -11 -52 -66 -52 -23 0 -45 -4 -50 -9 -6 -6 -32
-12 -60 -14 -27 -2 -5 -2 50 0 55 3 102 9 103 14 2 5 12 9 23 9 17 0 19 5 13
38 -9 47 -17 57 -13 14z"/>
<path d="M1415 1303 c-223 -696 -283 -870 -390 -1126 -20 -49 -35 -90 -33 -92
2 -2 15 -6 29 -10 24 -6 26 -3 53 87 15 51 34 111 41 133 7 22 25 81 40 130
16 50 41 130 57 178 15 49 28 95 28 103 0 8 4 22 9 32 5 9 24 64 42 122 53
175 79 261 110 354 16 49 29 97 29 106 0 9 4 20 9 26 9 10 32 96 27 102 -2 2
-25 -64 -51 -145z"/>
</g>
</svg>
