<?xml version="1.0" standalone="no"?>
<!DOCTYPE svg PUBLIC "-//W3C//DTD SVG 20010904//EN"
 "http://www.w3.org/TR/2001/REC-SVG-20010904/DTD/svg10.dtd">
<svg version="1.0" xmlns="http://www.w3.org/2000/svg"
 width="707.000000pt" height="707.000000pt" viewBox="0 0 707.000000 707.000000"
 preserveAspectRatio="xMidYMid meet">
<metadata>
Created by potrace 1.11, written by Peter Selinger 2001-2013
</metadata>
<g transform="translate(0.000000,707.000000) scale(0.100000,-0.100000)"
fill="#000000" stroke="none">
<path d="M4364 6759 c-10 -17 -348 -698 -426 -859 -119 -246 -149 -304 -165
-322 -14 -16 30 -39 586 -317 330 -166 605 -301 610 -301 14 0 42 60 34 73 -3
6 -1 7 5 3 14 -8 36 40 26 56 -4 6 -2 8 3 5 11 -7 66 94 66 119 0 7 3 11 7 9
10 -6 41 65 34 77 -4 6 -3 8 3 5 12 -7 36 40 27 54 -3 5 -1 8 4 7 13 -4 123
212 115 225 -3 5 -1 7 4 4 11 -7 36 43 36 69 0 7 4 11 8 8 11 -7 41 65 32 79
-3 6 -1 7 6 3 12 -8 32 33 23 49 -3 6 -1 6 3 2 11 -10 47 62 38 76 -3 5 -1 7
4 4 13 -8 26 20 16 35 -3 6 -2 8 4 5 12 -8 46 61 37 75 -4 6 -3 8 3 5 14 -9
37 38 28 55 -5 7 -5 10 0 6 11 -11 38 29 29 44 -4 6 -3 8 3 5 6 -4 14 0 17 9
15 40 6 52 -66 87 -40 19 -244 119 -453 222 -412 203 -637 312 -672 326 -14 5
-25 4 -29 -2z m355 -1011 c31 -97 39 -136 19 -88 -19 46 -67 203 -59 194 5 -5
22 -53 40 -106z m70 -223 c0 -5 -4 -3 -9 5 -5 8 -9 22 -9 30 0 16 17 -16 18
-35z"/>
<path d="M765 5327 c-288 -586 -454 -919 -465 -932 -9 -11 14 -27 122 -82 120
-61 133 -70 131 -93 -20 -244 24 -395 162 -558 40 -48 175 -140 276 -189 57
-28 196 -85 308 -128 275 -103 352 -143 425 -220 82 -87 91 -236 19 -333 -49
-65 -146 -116 -263 -137 -73 -14 -298 -13 -405 1 -117 16 -338 67 -469 109
-43 14 -80 25 -82 25 -1 0 -2 -107 -1 -237 l2 -237 90 -23 c92 -23 108 -27
205 -43 53 -8 99 -14 224 -26 86 -8 361 -8 428 -1 388 46 646 194 768 442 61
124 74 188 75 355 0 165 -17 240 -78 341 l-34 55 56 -19 c61 -21 299 -38 288
-20 -3 5 6 8 24 5 16 -2 29 0 29 4 0 5 10 9 23 10 12 0 34 4 48 8 l27 8 0
-179 -1 -179 -55 -35 c-135 -84 -261 -269 -298 -435 -33 -152 -6 -342 68 -472
57 -99 161 -204 258 -258 58 -33 148 -66 159 -59 6 3 11 2 11 -3 0 -5 22 -14
50 -19 63 -13 214 -17 207 -6 -3 4 18 9 47 9 55 2 172 45 159 59 -5 4 -2 5 5
1 16 -10 84 32 76 46 -4 6 -2 8 3 5 11 -7 85 46 118 85 67 78 129 183 119 199
-4 7 -3 9 4 5 6 -4 18 16 29 51 l20 58 71 16 c150 35 288 93 400 167 l53 35
29 -21 c44 -33 146 -83 214 -104 69 -22 303 -37 291 -19 -3 7 0 8 10 5 22 -9
146 26 138 39 -3 6 -1 7 5 3 13 -8 95 31 88 42 -2 4 4 8 15 8 21 0 22 -8 20
-128 -1 -55 1 -68 14 -68 8 0 15 -2 15 -4 0 -2 -17 -35 -38 -73 l-39 -70 597
-298 c579 -289 645 -317 626 -269 -3 8 -2 13 3 10 11 -7 23 22 14 36 -3 7 -1
8 5 4 13 -8 36 39 27 54 -3 5 0 12 6 16 8 4 9 3 5 -4 -4 -7 -5 -12 -2 -12 5 0
46 78 46 87 0 3 -5 1 -12 -3 -7 -4 -8 -3 -4 5 4 6 11 9 15 7 11 -7 43 63 35
76 -4 6 -3 8 3 5 12 -7 46 60 37 74 -3 5 0 8 8 7 8 -2 13 6 12 19 0 12 3 20 7
17 12 -7 41 55 33 69 -4 7 -3 8 1 4 11 -10 47 62 38 76 -3 5 -2 7 4 4 10 -6
50 70 46 85 -2 5 0 8 5 8 4 0 16 16 26 35 16 29 25 35 51 35 l32 0 -1 58 c-2
45 4 69 25 111 15 30 26 58 23 63 -3 4 -1 8 5 8 13 0 42 60 34 73 -3 5 -1 7 4
4 13 -8 26 20 16 35 -4 7 -1 8 7 3 10 -6 12 -4 6 11 -4 10 -4 15 0 11 5 -4 16
9 26 30 14 29 15 39 6 45 -10 6 -10 8 0 8 27 0 9 17 -50 44 -101 48 -653 319
-658 323 -3 3 -5 304 -5 669 l-1 664 281 0 281 0 0 195 0 195 -23 1 c-13 0
-367 0 -788 0 -421 0 -773 0 -784 0 -17 -1 -18 -13 -19 -196 l-1 -195 282 0
282 0 0 -547 c1 -302 -3 -550 -6 -553 -4 -3 -80 -151 -168 -330 -89 -178 -167
-328 -175 -332 -9 -5 -15 -1 -19 12 -3 11 -2 18 3 15 11 -7 22 24 13 37 -3 7
-1 8 5 4 14 -8 35 30 28 50 -3 8 -2 13 3 10 18 -12 52 142 54 241 2 202 -72
369 -224 506 -106 97 -285 173 -421 180 -44 2 -48 4 -48 27 -2 70 -30 247 -54
337 -14 52 -14 52 15 83 17 17 27 36 23 42 -4 6 -3 8 3 5 11 -7 46 39 46 60 0
7 3 10 7 8 9 -6 69 118 73 148 1 12 4 24 8 27 3 3 10 27 16 55 9 38 8 54 0 64
-9 12 -9 13 1 7 9 -5 12 9 12 63 0 46 -4 71 -12 74 -8 3 -9 6 -2 6 8 1 8 16
-2 54 -36 148 -76 219 -184 328 -72 73 -101 94 -181 133 -114 55 -212 78 -328
75 -195 -4 -383 -97 -503 -249 -42 -53 -101 -159 -117 -211 l-12 -37 -358 1
c-197 0 -362 -3 -368 -6 -5 -3 -8 -32 -6 -65 l3 -59 -80 23 c-135 39 -269 36
-400 -8 -36 -13 -69 -23 -75 -23 -5 0 -11 18 -11 40 -2 61 -3 65 -16 65 -7 0
-30 5 -50 10 l-37 11 25 45 c14 24 22 50 18 56 -4 6 -3 8 3 5 13 -8 26 20 16
35 -3 7 -1 8 5 4 11 -6 30 40 20 49 -4 4 -486 241 -954 470 -126 62 -239 115
-250 119 -17 5 -35 -25 -149 -257z m1093 -924 c-2 -5 -17 -35 -32 -68 -89
-190 -85 -416 9 -593 19 -36 34 -66 32 -67 -1 -1 -51 19 -112 45 -60 26 -136
56 -167 66 -36 12 -59 25 -62 36 -2 10 -1 16 3 13 11 -6 33 44 25 57 -5 7 -2
8 6 3 10 -6 12 -4 6 11 -4 10 -4 15 0 11 10 -10 86 141 78 155 -4 6 -3 8 3 5
13 -8 106 170 97 185 -4 6 -3 8 3 5 5 -3 26 28 46 69 23 46 43 74 53 74 9 0
14 -3 12 -7z m1596 -37 c10 -25 35 -73 58 -108 l40 -62 -76 -153 c-42 -84 -80
-153 -85 -153 -5 0 -54 23 -110 50 l-101 51 0 209 0 210 129 0 128 0 17 -44z
m608 -425 c6 -1 21 -66 32 -141 10 -62 19 -270 12 -270 -3 0 -53 23 -110 52
-98 49 -130 78 -104 94 5 3 7 13 4 21 -4 9 -2 11 6 7 8 -5 9 -2 5 10 -4 9 -3
15 2 12 11 -7 33 43 25 56 -5 7 -2 8 6 3 10 -6 12 -4 7 9 -4 9 -3 15 2 12 11
-7 23 22 14 36 -3 6 -2 8 4 5 13 -8 36 41 27 55 -4 6 -2 8 3 5 12 -7 26 20 18
33 -4 6 18 7 47 1z m-263 -856 l149 -74 4 -50 c3 -45 -1 -55 -31 -91 -43 -52
-140 -121 -213 -150 -32 -13 -59 -22 -60 -19 -2 2 -14 26 -28 54 -14 27 -44
73 -67 101 -26 33 -41 60 -40 77 1 14 4 23 6 21 8 -8 72 127 65 138 -4 6 -3 8
3 5 5 -3 17 9 26 28 9 19 21 35 27 35 6 0 77 -34 159 -75z m2139 -856 c-3 -8
-7 -3 -11 10 -4 17 -3 21 5 13 5 -5 8 -16 6 -23z m22 -59 c0 -5 -5 -10 -11
-10 -5 0 -7 5 -4 10 3 6 8 10 11 10 2 0 4 -4 4 -10z m77 -252 c-3 -8 -6 -5 -6
6 -1 11 2 17 5 13 3 -3 4 -12 1 -19z"/>
<path d="M1909 1683 c-111 -225 -240 -487 -287 -583 -47 -96 -92 -183 -100
-193 -8 -9 -13 -19 -11 -20 30 -23 1197 -597 1208 -595 9 2 16 13 15 26 0 12
2 20 4 17 9 -9 33 35 26 47 -4 6 -3 8 3 5 13 -8 26 20 16 35 -3 6 -1 8 4 5 13
-8 26 20 16 35 -3 6 -2 8 4 5 12 -8 46 61 37 75 -4 6 -3 8 3 5 13 -8 36 41 27
55 -4 6 -3 8 3 5 12 -8 55 71 46 85 -3 6 -1 8 4 5 13 -8 26 20 16 36 -3 7 -2
8 2 4 5 -4 28 30 50 75 23 46 54 105 68 132 15 26 24 53 20 59 -3 5 -2 7 4 4
13 -8 36 41 27 55 -4 6 -2 8 3 5 13 -8 26 20 16 36 -3 7 -2 9 2 4 11 -10 118
191 109 205 -4 6 -3 8 3 5 13 -8 26 20 16 36 -3 7 -2 8 2 4 9 -8 64 92 71 129
3 17 -10 27 -87 63 -106 51 -884 432 -1012 497 -48 24 -96 44 -107 44 -16 0
-58 -78 -221 -407z m559 -625 c-4 -10 -49 113 -47 128 0 5 11 -20 25 -55 14
-35 23 -68 22 -73z m32 -92 c-1 -6 -7 4 -15 23 -8 18 -15 38 -15 45 1 6 7 -4
15 -23 8 -18 15 -38 15 -45z m23 -66 c3 -11 1 -18 -4 -14 -5 3 -9 12 -9 20 0
20 7 17 13 -6z m27 -85 c0 -5 -5 -3 -10 5 -5 8 -10 20 -10 25 0 6 5 3 10 -5 5
-8 10 -19 10 -25z"/>
</g>
</svg>
